<svg xmlns="http://www.w3.org/2000/svg" width="27" height="31" viewBox="0 0 27 31">
  <g fill="none" fill-rule="evenodd">
    <g fill="#FFF101" transform="translate(9)">
      <path stroke="#FFF101" d="M12,9.6 L12,9.5 C12.00091,7.4188204 10.574583,5.60852717 8.5509566,5.12247635 C6.5273301,4.63642554 4.4344082,5.60143736 3.49,7.456 C4.7341958,7.93075721 5.817687,8.74961855 6.614,9.817 C7.4811711,9.2812795 8.4806966,8.99832306 9.5,9 C10.4,9 11.25,9.216 11.999,9.6 L12,9.6 Z"/>
      <path fill-rule="nonzero" d="M7.5,0 C7.224,0 7,0.216 7,0.495 L7,2.505 C7,2.778 7.232,3 7.5,3 C7.776,3 8,2.784 8,2.505 L8,0.495 C7.9956541,0.221493522 7.7735363,0.00159693235 7.5,0 Z M14.233,2.789 C14.1405496,2.69430392 14.013969,2.64066268 13.8816281,2.64009873 C13.7492873,2.63953477 13.6222541,2.69209527 13.529,2.786 L12.109,4.206 C11.9182467,4.40237928 11.91958,4.71525356 12.112,4.91 C12.2043159,5.00482885 12.3308213,5.05865082 12.4631625,5.05940276 C12.5955036,5.06015469 12.7226125,5.00777371 12.816,4.914 L14.236,3.493 C14.4267533,3.29662072 14.42542,2.98374644 14.233,2.789 L14.233,2.789 Z M17.022,9.522 C17.022,9.246 16.806,9.022 16.527,9.022 L14.517,9.022 C14.2434935,9.02634589 14.0235969,9.24846366 14.022,9.522 C14.022,9.798 14.238,10.022 14.517,10.022 L16.527,10.022 C16.8005065,10.0176541 17.0204031,9.79553634 17.022,9.522 L17.022,9.522 Z M0.767,2.789 C0.67230392,2.88145036 0.61866268,3.00803103 0.61809873,3.14037187 C0.61753477,3.27271271 0.67009527,3.39974594 0.764,3.493 L2.184,4.913 C2.3803793,5.10375328 2.6932536,5.10242001 2.888,4.91 C2.9828288,4.81768406 3.0366508,4.69117865 3.0374028,4.55883752 C3.0381547,4.42649638 2.9857737,4.29938754 2.892,4.206 L1.471,2.786 C1.2746207,2.59524672 0.96174644,2.59657999 0.767,2.789 L0.767,2.789 Z"/>
    </g>
    <path stroke="#979797" d="M3.54199442,14.7425402 C1.75035756,15.3562779 0.5,17.0536987 0.5,19 C0.5,21.4834672 2.51997805,23.5 5.00281647,23.5 L21.9971835,23.5 C24.482476,23.5 26.5,21.4823306 26.5,19 C26.5,17.0675535 25.2672268,15.3800091 23.4935859,14.7552533 C23.4978569,14.6704531 23.5,14.5853499 23.5,14.5 C23.5,11.7385761 21.2614239,9.5 18.5,9.5 C17.3929869,9.5 16.3421852,9.86183063 15.4851928,10.5106855 C14.3078751,8.66122936 12.2573761,7.5 10,7.5 C6.41014895,7.5 3.5,10.4101489 3.5,14 C3.5,14.2494916 3.51407949,14.4972838 3.54199442,14.7425402 Z"/>
    <path fill="#4990E2" fill-rule="nonzero" d="M7,26 C6.44771525,26 6,26.4438648 6,27 C6,27.5522847 6.44386482,28 7,28 C7.5522847,28 8,27.5561352 8,27 C8,26.4477153 7.5561352,26 7,26 L7,26 Z M10,29 C9.4477153,29 9,29.4438648 9,30 C9,30.5522847 9.4438648,31 10,31 C10.5522847,31 11,30.5561352 11,30 C11,29.4477153 10.5561352,29 10,29 L10,29 Z M14,26 C13.4477153,26 13,26.4438648 13,27 C13,27.5522847 13.4438648,28 14,28 C14.5522847,28 15,27.5561352 15,27 C15,26.4477153 14.5561352,26 14,26 L14,26 Z M17,29 C16.4477153,29 16,29.4438648 16,30 C16,30.5522847 16.4438648,31 17,31 C17.5522847,31 18,30.5561352 18,30 C18,29.4477153 17.5561352,29 17,29 L17,29 Z M20,26 C19.4477153,26 19,26.4438648 19,27 C19,27.5522847 19.4438648,28 20,28 C20.5522847,28 21,27.5561352 21,27 C21,26.4477153 20.5561352,26 20,26 L20,26 Z"/>
  </g>
</svg>
