<svg xmlns="http://www.w3.org/2000/svg" width="31" height="22" viewBox="0 0 31 22">
  <g fill="none" fill-rule="evenodd" transform="translate(0 1)">
    <path stroke="#4A4A4A" d="M27.2396685,5.50807875 C27.7283798,4.1292273 27.5200614,2.57699676 26.6416981,1.36485317 C25.6015046,-0.0706163827 23.8154667,-0.761634295 22.08,-0.400067448 C20.6143049,-0.0947047907 19.4153603,0.913376485 18.8488819,2.26241249 C17.8910608,1.56774727 16.6595517,1.32417715 15.4876219,1.63067887 C14.0467472,2.00751934 12.9344367,3.15349527 12.600714,4.60496275 L12.5120399,4.99063487 L12.8670328,5.1655237 C13.7922166,5.62131955 14.5962797,6.28978058 15.2133742,7.11616381 L15.487064,7.48267604 L15.8764228,7.24259874 C17.4072506,6.29869539 19.327065,6.2496409 20.9041004,7.1141331 C22.4811357,7.97862531 23.4724004,9.62346209 23.5000591,11.4216897 L23.5049995,11.7428867 L23.7991881,11.8719024 C24.1215085,12.0132552 24.4249711,12.190577 24.7021708,12.3993767 L24.8357568,12.5 L25.003,12.5 L27.006,12.5 C28.9374549,12.4967806 30.5006464,10.9304565 30.5,8.99983258 C30.5000037,7.1479137 29.0612967,5.63131104 27.2396685,5.50807875 Z"/>
    <path stroke="#979797" d="M3.54199442,11.7425402 C1.75035756,12.3562779 0.5,14.0536987 0.5,16 C0.5,18.4834672 2.51997805,20.5 5.00281647,20.5 L21.9971835,20.5 C24.482476,20.5 26.5,18.4823306 26.5,16 C26.5,14.0675535 25.2672268,12.3800091 23.4935859,11.7552533 C23.4978569,11.6704531 23.5,11.5853499 23.5,11.5 C23.5,8.73857613 21.2614239,6.5 18.5,6.5 C17.3929869,6.5 16.3421852,6.86183063 15.4851928,7.51068552 C14.3078751,5.66122936 12.2573761,4.5 10,4.5 C6.41014895,4.5 3.5,7.41014894 3.5,11 C3.5,11.2494916 3.51407949,11.4972838 3.54199442,11.7425402 Z"/>
  </g>
</svg>
