<svg xmlns="http://www.w3.org/2000/svg" width="19" height="13" viewBox="0 0 19 13">
  <g fill="none" fill-rule="evenodd">
    <path fill="#4A4A4A" d="M12.566,9.682 C13.7281023,8.69256758 14.4268072,7.26473214 14.495,5.74 C12.8612475,6.31585147 11.0419994,5.9027974 9.817101,4.677899 C8.5922026,3.45300061 8.17914853,1.6337525 8.755,0 C6.37494695,0.108565446 4.33519235,1.73667136 3.70174044,4.03344685 C3.06828852,6.33022234 3.98508531,8.77374671 5.973,10.087 L6.759,9.398 C5.23297341,8.52152231 4.35754775,6.83622199 4.51796016,5.08372715 C4.67837257,3.33123231 5.84521097,1.83286806 7.505,1.248 C7.43608784,2.79043779 8.0186755,4.29081209 9.11043171,5.38256829 C10.2021879,6.4743245 11.7025622,7.05691216 13.245,6.988 C12.9638619,7.7854884 12.4641859,8.48787615 11.803,9.015 L12.566,9.682 L12.566,9.682 Z"/>
    <path fill="#929292" d="M0.508,12 C0.230972451,12.0010332 0.00543002391,12.2230237 0,12.5 C0,12.776 0.227,13 0.508,13 L6.583,13 L7.75,12 L9.5,10.5 L11.25,12 L12.417,13 L18.492,13 C18.7690275,12.9989668 18.99457,12.7769763 19,12.5 C19,12.224 18.773,12 18.492,12 L13,12 L9.5,9 L6,12 L0.508,12 Z"/>
  </g>
</svg>
