<svg xmlns="http://www.w3.org/2000/svg" width="20" height="13" viewBox="0 0 20 13">
  <g fill="none" fill-rule="evenodd">
    <path fill="#FFF101" d="M14.977,10 C15.1653104,7.92454264 14.1644285,5.92091733 12.3918905,4.82497334 C10.6193526,3.72902934 8.37964743,3.72902934 6.60710947,4.82497334 C4.8345715,5.92091733 3.83368955,7.92454264 4.022,10 L5.027,10 C4.83638152,8.28370372 5.64472288,6.60970481 7.10737441,5.6917403 C8.57002594,4.7737758 10.4289741,4.7737758 11.8916256,5.6917403 C13.3542771,6.60970481 14.1626185,8.28370372 13.972,10 L14.978,10 L14.977,10 Z M9.53,0 C9.254,0 9.03,0.216 9.03,0.495 L9.03,2.505 C9.03,2.778 9.262,3 9.53,3 C9.806,3 10.03,2.784 10.03,2.505 L10.03,0.495 C10.0256541,0.221493522 9.80353634,0.00159693235 9.53,0 Z M16.268,2.791 C16.1755496,2.69630392 16.048969,2.64266268 15.9166281,2.64209873 C15.7842873,2.64153477 15.6572541,2.69409527 15.564,2.788 L14.144,4.208 C13.9532467,4.40437928 13.95458,4.71725356 14.147,4.912 C14.2393159,5.00682885 14.3658213,5.06065082 14.4981625,5.06140276 C14.6305036,5.06215469 14.7576125,5.00977371 14.851,4.916 L16.271,3.495 C16.4617533,3.29862072 16.46042,2.98574644 16.268,2.791 L16.268,2.791 Z M19.059,9.529 C19.059,9.253 18.843,9.029 18.564,9.029 L16.554,9.029 C16.2804935,9.03334589 16.0605969,9.25546366 16.059,9.529 C16.059,9.805 16.275,10.029 16.554,10.029 L18.564,10.029 C18.8375065,10.0246541 19.0574031,9.80253634 19.059,9.529 L19.059,9.529 Z M0,9.53 C0,9.806 0.216,10.03 0.495,10.03 L2.505,10.03 C2.77850648,10.0256541 2.99840307,9.80353634 3,9.53 C3,9.254 2.784,9.03 2.505,9.03 L0.495,9.03 C0.221493522,9.03434589 0.00159693235,9.25646366 0,9.53 L0,9.53 Z M2.791,2.792 C2.69630392,2.88445036 2.64266268,3.01103103 2.64209873,3.14337187 C2.64153477,3.27571271 2.69409527,3.40274594 2.788,3.496 L4.208,4.916 C4.40437928,5.10675328 4.71725356,5.10542001 4.912,4.913 C5.00682885,4.82068406 5.06065082,4.69417865 5.06140276,4.56183752 C5.06215469,4.42949638 5.00977371,4.30238754 4.916,4.209 L3.495,2.789 C3.29862072,2.59824672 2.98574644,2.59957999 2.791,2.792 Z"/>
    <path fill="#9B9B9B" d="M0.537,12 C0.259972451,12.0010332 0.0344300239,12.2230237 0.029,12.5 C0.029,12.776 0.256,13 0.537,13 L6.612,13 L7.779,12 L9.529,10.5 L11.279,12 L12.446,13 L18.521,13 C18.7980275,12.9989668 19.02357,12.7769763 19.029,12.5 C19.029,12.224 18.802,12 18.521,12 L13.029,12 L9.529,9 L6.029,12 L0.537,12 Z"/>
  </g>
</svg>
