<svg xmlns="http://www.w3.org/2000/svg" width="20" height="16" viewBox="0 0 20 16">
  <g fill="none" fill-rule="evenodd">
    <path fill="#F6A623" d="M15.007,10 C15.1953104,7.92454264 14.1944285,5.92091733 12.4218905,4.82497334 C10.6493526,3.72902934 8.40964743,3.72902934 6.63710947,4.82497334 C4.8645715,5.92091733 3.86368955,7.92454264 4.052,10 L5.057,10 C4.86638152,8.28370372 5.67472288,6.60970481 7.13737441,5.6917403 C8.60002594,4.7737758 10.4589741,4.7737758 11.9216256,5.6917403 C13.3842771,6.60970481 14.1926185,8.28370372 14.002,10 L15.007,10 L15.007,10 Z M9.529,-1.97215226e-31 C9.253,-1.97215226e-31 9.029,0.216 9.029,0.495 L9.029,2.505 C9.029,2.778 9.261,3 9.529,3 C9.805,3 10.029,2.784 10.029,2.505 L10.029,0.495 C10.0246541,0.221493522 9.80253634,0.00159693235 9.529,-8.8817842e-16 L9.529,-1.97215226e-31 Z M16.267,2.791 C16.1745496,2.69630392 16.047969,2.64266268 15.9156281,2.64209873 C15.7832873,2.64153477 15.6562541,2.69409527 15.563,2.788 L14.143,4.208 C13.9522467,4.40437928 13.95358,4.71725356 14.146,4.912 C14.2383159,5.00682885 14.3648213,5.06065082 14.4971625,5.06140276 C14.6295036,5.06215469 14.7566125,5.00977371 14.85,4.916 L16.27,3.495 C16.4607533,3.29862072 16.45942,2.98574644 16.267,2.791 L16.267,2.791 Z M19.058,9.529 C19.058,9.253 18.842,9.029 18.563,9.029 L16.553,9.029 C16.2794935,9.03334589 16.0595969,9.25546366 16.058,9.529 C16.058,9.805 16.274,10.029 16.553,10.029 L18.563,10.029 C18.8365065,10.0246541 19.0564031,9.80253634 19.058,9.529 L19.058,9.529 Z M0,9.53 C0,9.806 0.216,10.03 0.495,10.03 L2.505,10.03 C2.77850648,10.0256541 2.99840307,9.80353634 3,9.53 C3,9.254 2.784,9.03 2.505,9.03 L0.495,9.03 C0.221493522,9.03434589 0.00159693235,9.25646366 0,9.53 Z M2.791,2.792 C2.69630392,2.88445036 2.64266268,3.01103103 2.64209873,3.14337187 C2.64153477,3.27571271 2.69409527,3.40274594 2.788,3.496 L4.208,4.916 C4.40437928,5.10675328 4.71725356,5.10542001 4.912,4.913 C5.00682885,4.82068406 5.06065082,4.69417865 5.06140276,4.56183752 C5.06215469,4.42949638 5.00977371,4.30238754 4.916,4.209 L3.495,2.789 C3.29862072,2.59824672 2.98574644,2.59957999 2.791,2.792 L2.791,2.792 Z"/>
    <path fill="#929292" d="M0.537,13 C0.259972451,12.9989668 0.0344300239,12.7769763 0.029,12.5 C0.029,12.224 0.256,12 0.537,12 L6.612,12 L7.779,13 L9.529,14.5 L11.279,13 L12.446,12 L18.521,12 C18.7980275,12.0010332 19.02357,12.2230237 19.029,12.5 C19.029,12.776 18.802,13 18.521,13 L13.029,13 L9.529,16 L6.029,13 L0.537,13 Z"/>
  </g>
</svg>
