<svg xmlns="http://www.w3.org/2000/svg" width="21" height="25" viewBox="0 0 21 25">
  <g fill="none" fill-rule="evenodd">
    <path fill="#D0011B" d="M17,7.4 L15,7.614 L15,2.38 L17,2.594 L17,7.4 Z M18,7.293 L20,7.079 L20,2.915 L18,2.7 L18,7.292 L18,7.293 Z M14,7.722 L11,8.043 L11,1.952 L14,2.272 L14,7.722 Z M10,8.15 L7,8.472 L7,1.524 L10,1.844 L10,8.15 L10,8.15 Z M6,8.579 L3,8.9 L3,1.096 L6,1.417 L6,8.579 L6,8.579 Z M2,0 L2,10 L21,8 L21,2 L2,0 Z"/>
    <path fill="#4A4A4A" d="M0.5,0 C0.224,0 0,0.216 0,0.5 L0,24.5 C0,24.776 0.232,25 0.5,25 C0.776,25 1,24.784 1,24.5 L1,0.5 C1,0.224 0.768,0 0.5,0 Z"/>
  </g>
</svg>
