<svg xmlns="http://www.w3.org/2000/svg" width="10" height="30" viewBox="0 0 10 30">
  <g fill="none" fill-rule="evenodd">
    <path fill="#4990E2" d="M7,21.536 C8.56787206,22.4412114 9.33227518,24.2866437 8.86370331,26.0353778 C8.39513143,27.7841119 6.81042271,29.0001016 5,29.0001016 C3.18957729,29.0001016 1.60486857,27.7841119 1.13629669,26.0353778 C0.667724817,24.2866437 1.43212794,22.4412114 3,21.536 L3,3.003 C3,1.89 3.895,1 5,1 C6.112,1 7,1.897 7,3.004 L7,21.535 L7,21.536 Z M8,21 C9.72172163,22.2912912 10.4239867,24.5394281 9.74341649,26.5811388 C9.06284626,28.6228495 7.15215204,30 5,30 C2.84784796,30 0.937153742,28.6228495 0.25658351,26.5811388 C-0.423986722,24.5394281 0.278278368,22.2912912 2,21 L2,2.99 C2.00496111,1.33682348 3.34681613,-0.000558689093 5,2.22044605e-16 C6.653,2.22044605e-16 8,1.339 8,2.99 L8,21 Z"/>
    <path fill="#D0011B" d="M5.986,22.166 C7.36701579,22.6485987 8.19882604,24.0566532 7.95503797,25.4991072 C7.71124989,26.9415612 6.46290886,27.9980509 5,28 C3.5353464,28.0009307 2.28412205,26.9441118 2.04004339,25.4999385 C1.79596473,24.0557652 2.63038999,22.6464523 4.014,22.166 C4.0047882,22.1111443 4.00010574,22.0556237 4,22 L4,7 C4,6.455 4.448,6 5,6 C5.556,6 6,6.448 6,7 L6,22 C6.00001492,22.0556288 5.99533161,22.1111595 5.986,22.166 Z"/>
  </g>
</svg>
