<svg xmlns="http://www.w3.org/2000/svg" width="10" height="30" viewBox="0 0 10 30">
  <g fill="none" fill-rule="evenodd">
    <path fill="#4990E2" d="M7,21.536 C8.56787206,22.4412114 9.33227518,24.2866437 8.86370331,26.0353778 C8.39513143,27.7841119 6.81042271,29.0001016 5,29.0001016 C3.18957729,29.0001016 1.60486857,27.7841119 1.13629669,26.0353778 C0.667724817,24.2866437 1.43212794,22.4412114 3,21.536 L3,3.003 C3,1.89 3.895,1 5,1 C6.112,1 7,1.897 7,3.004 L7,21.535 L7,21.536 Z M8,21 C9.72172163,22.2912912 10.4239867,24.5394281 9.74341649,26.5811388 C9.06284626,28.6228495 7.15215204,30 5,30 C2.84784796,30 0.937153742,28.6228495 0.25658351,26.5811388 C-0.423986722,24.5394281 0.278278368,22.2912912 2,21 L2,2.99 C2.00496111,1.33682348 3.34681613,-0.000558689093 5,2.22044605e-16 C6.653,2.22044605e-16 8,1.339 8,2.99 L8,21 Z"/>
    <path fill="#D0011B" d="M5.987,22.166 C7.36819237,22.6486623 8.20001101,24.0570008 7.95595126,25.4995991 C7.71189151,26.9421975 6.46309708,27.9985365 5,28 C3.53515688,28.0014202 2.28347543,26.9447521 2.03912443,25.5004322 C1.79477343,24.0561123 2.62921019,22.6465134 4.013,22.166 C4.0041688,22.1114472 3.99982093,22.0562627 4,22.001 L4,3 C4,2.44 4.448,2.001 5,2.001 C5.556,2.001 6,2.448 6,3 L6,22 C6,22.057 5.995,22.112 5.987,22.165 L5.987,22.166 Z"/>
  </g>
</svg>
