<svg xmlns="http://www.w3.org/2000/svg" width="19" height="17" viewBox="0 0 19 17">
  <g fill="none" fill-rule="evenodd">
    <path fill="#4A4A4A" d="M14.336,6.831 C13.647875,9.57781695 10.9866115,11.3532397 8.18615196,10.9337805 C5.38569247,10.5143213 3.3614018,8.03708563 3.50826871,5.20919781 C3.65513562,2.38131 5.92515484,0.127100142 8.754,0 C8.17814853,1.6337525 8.5912026,3.45300061 9.816101,4.677899 C11.0409994,5.9027974 12.8602475,6.31585147 14.494,5.74 C14.478,6.115 14.424,6.48 14.336,6.831 L14.336,6.831 Z M4.5,5.495 C4.49992404,3.58563602 5.70428532,1.88389957 7.505,1.249 C7.43608784,2.79143779 8.0186755,4.29181209 9.11043171,5.38356829 C10.2021879,6.4753245 11.7025622,7.05791216 13.245,6.989 C12.5130168,9.05274736 10.4022901,10.2905155 8.24384701,9.92176601 C6.08540396,9.55301656 4.50532072,7.68470871 4.5,5.495 L4.5,5.495 Z"/>
    <path fill="#929292" d="M0.508,14 C0.230972451,13.9989668 0.00543002391,13.7769763 0,13.5 C0,13.224 0.227,13 0.508,13 L6.583,13 L7.75,14 L9.5,15.5 L11.25,14 L12.417,13 L18.492,13 C18.7690275,13.0010332 18.99457,13.2230237 19,13.5 C19,13.776 18.773,14 18.492,14 L13,14 L9.5,17 L6,14 L0.508,14 Z"/>
  </g>
</svg>
