<svg xmlns="http://www.w3.org/2000/svg" width="27" height="13" viewBox="0 0 27 13">
  <defs>
    <linearGradient id="icon-43-wind-a" x1="0%" x2="106.503%" y1="50%" y2="50%">
      <stop offset="0%" stop-color="#FFF"/>
      <stop offset="100%" stop-color="#4990E2"/>
    </linearGradient>
  </defs>
  <path fill="url(#icon-43-wind-a)" fill-rule="evenodd" d="M27,4 C27,1.790861 25.209139,0 23,0 C20.790861,0 19,1.790861 19,4 L20,4 C20,2.343 21.347,1 23,1 C24.657,1 26,2.347 26,4 C26,5.657 24.657,7 22.992,7 L0,7 L0,8 L23.002,8 C25.2099007,7.99779348 26.9988977,6.20790149 27,4 L27,4 Z M18,3 C18,1.343 16.653,0 15,0 C13.343,0 12,1.342 12,2.991 L12,3 L13,3 C13,1.895 13.888,1 15,1 C16.105,1 17,1.888 17,3 C17,4.105 16.103,5 14.994,5 L3,5 L3,6 L15,6 C16.657,6 18,4.653 18,3 Z M22,11 C22,12.105 21.112,13 20,13 C18.895,13 18,12.105 18,11.006 L18,11 L19,11 C19,11.552 19.444,12 20,12 C20.552,12 21,11.556 21,11 C21,10.448 20.551,10 19.993,10 L6,10 L6,9 L20.006,9 C21.107,9 22,9.888 22,11 Z"/>
</svg>
