<svg xmlns="http://www.w3.org/2000/svg" width="19" height="9" viewBox="0 0 19 9">
  <path fill="#4990E2" fill-rule="evenodd" d="M0,3.857 C0,2.414 2.51,0 2.51,0 C2.51,0 5,2.414 5,3.857 C5,4.886 4.187,6 2.51,6 C0.835,6 0,4.971 0,3.857 Z M1.01,3.8 C1.01,3.1 2.51,1.479 2.51,1.479 C2.51,1.479 4.013,3.1 4.013,3.8 C4.013,4.552 3.343,5 2.511,5 C1.678,5 1.01,4.675 1.01,3.8 Z M7,6.857 C7,5.414 9.51,3 9.51,3 C9.51,3 12,5.414 12,6.857 C12,7.886 11.187,9 9.51,9 C7.835,9 7,7.971 7,6.857 Z M8.01,6.8 C8.01,6.1 9.51,4.479 9.51,4.479 C9.51,4.479 11.013,6.1 11.013,6.8 C11.013,7.552 10.343,8 9.511,8 C8.678,8 8.01,7.675 8.01,6.8 Z M14,3.857 C14,2.414 16.51,0 16.51,0 C16.51,0 19,2.414 19,3.857 C19,4.886 18.187,6 16.51,6 C14.835,6 14,4.971 14,3.857 Z M15.01,3.8 C15.01,3.1 16.51,1.479 16.51,1.479 C16.51,1.479 18.013,3.1 18.013,3.8 C18.013,4.552 17.343,5 16.511,5 C15.678,5 15.01,4.675 15.01,3.8 Z"/>
</svg>
