<svg xmlns="http://www.w3.org/2000/svg" width="27" height="23" viewBox="0 0 27 23">
  <g fill="none" fill-rule="evenodd">
    <path stroke="#000" d="M23.4494866,3.5 C23.3022832,2.77918235 22.841687,2.14974833 22.1777209,1.79514949 C21.5328346,1.45074042 20.7791741,1.40996557 20.1124976,1.66312295 C19.7175158,1.04091756 19.0606415,0.615434938 18.3101883,0.52215496 C17.3695984,0.405241346 16.4437806,0.830299138 15.9193522,1.61982609 C15.5460678,2.18180573 15.4218462,2.85964311 15.5516331,3.5 L15.506,3.5 C14.9115334,3.5 14.3572951,3.75843095 13.9807889,4.19928552 L13.6450467,4.59240907 L14.0491598,4.91483972 C14.4866108,5.26386979 14.8786311,5.66829435 15.213503,6.11633624 L15.4874678,6.48288737 L15.8767872,6.24237382 C16.6647502,5.75558651 17.5729781,5.49847555 18.4991774,5.49999932 C20.0124098,5.5 21.4128706,6.17437686 22.357445,7.31835102 L22.5074318,7.5 L22.743,7.5 L23.493,7.5 C24.5975695,7.5 25.493,6.6045695 25.493,5.5 C25.493,4.3954305 24.5975695,3.5 23.493,3.5 L23.4494866,3.5 Z"/>
    <path stroke="#979797" d="M14.2304358,19.5 L21.9971835,19.5 C24.482476,19.5 26.5,17.4823306 26.5,15 C26.5,13.0675535 25.2672268,11.3800091 23.4935859,10.7552533 C23.4978569,10.6704531 23.5,10.5853499 23.5,10.5 C23.5,7.73857613 21.2614239,5.5 18.5,5.5 C17.3929869,5.5 16.3421852,5.86183063 15.4851928,6.51068552 C14.3078751,4.66122936 12.2573761,3.5 10,3.5 C6.41014895,3.5 3.5,6.41014894 3.5,10 C3.5,10.2494916 3.51407949,10.4972839 3.54199442,10.7425402 C1.75035756,11.3562779 0.5,13.0536987 0.5,15 C0.5,16.8045191 1.56648016,18.3625127 3.10208804,19.0795128 C2.73645796,19.4419263 2.51000023,19.9445171 2.51000023,20.5 C2.51000023,21.6045695 3.40543073,22.5 4.51000023,22.5 L12.4980002,22.5 C13.6025697,22.5 14.4980002,21.6045695 14.4980002,20.5 C14.4980002,20.1357129 14.4006059,19.7941734 14.2304358,19.5 Z"/>
    <path stroke="#4A4A4A" d="M4.55563328,18.5 L4.51000023,18.5 C3.40543073,18.5 2.51000023,19.3954305 2.51000023,20.5 C2.51000023,21.6045695 3.40543073,22.5 4.51000023,22.5 L12.4980002,22.5 C13.6025697,22.5 14.4980002,21.6045695 14.4980002,20.5 C14.4980002,19.3954305 13.6025697,18.5 12.4980002,18.5 L12.4534869,18.5 C12.3062834,17.7791823 11.8456872,17.1497483 11.1817212,16.7951495 C10.5368349,16.4507404 9.78317434,16.4099656 9.11649779,16.663123 C8.72151602,16.0409176 8.06464169,15.6154349 7.31418848,15.522155 C6.37359868,15.4052413 5.44778086,15.8302991 4.92335244,16.6198261 C4.55006805,17.1818057 4.42584646,17.8596431 4.55563328,18.5 Z"/>
  </g>
</svg>
