<svg xmlns="http://www.w3.org/2000/svg" width="27" height="22" viewBox="0 0 27 22">
  <g fill="none">
    <path fill="#1A1A1A" d="M21.477,7.875 C22.0533844,7.36679038 22.4902242,6.71962042 22.746,5.995 C21.2035622,6.06391216 19.7031879,5.4813245 18.6114317,4.38956829 C17.5196755,3.29781209 16.9370878,1.79743779 17.006,0.255 C15.7530032,0.696315701 14.7588811,1.66849127 14.2897087,2.91132586 C13.8205362,4.15416045 13.9242166,5.54075856 14.573,6.7 C14.959,7.033 15.307,7.408 15.613,7.816 C16.4805639,7.28045147 17.4804537,6.99783628 18.5,7 C19.5559903,6.99819503 20.5899297,7.30209055 21.477,7.875 L21.477,7.875 Z"/>
    <path fill="#929292" d="M0.01435298,17.382213 C0.00484149,17.256058 0,17.128596 0,17 C0,14.9491311 1.23965876,13.1816085 3.01189661,12.4115388 L3.01189661,12.4115388 C3.00400207,12.275367 3,12.1381509 3,12 C3,11.8673058 3.00369217,11.735474 3.01097937,11.6046017 L3.01097937,11.6046017 C3.00379095,11.5708677 3,11.5358751 3,11.5 C3,11.4393285 3.01133839,11.380508 3.03204832,11.3258084 C3.37126467,7.7761208 6.36143327,5 10,5 C12.2979469,5 14.3372745,6.10728055 15.6135384,7.8173973 C16.4525719,7.299097 17.441357,7 18.5,7 C21.5090248,7 23.9536744,9.4163763 23.9993494,12.4145295 L23.9993494,12.4145295 C25.7676457,13.1852931 27,14.9483386 27,17 C27,17.1285889 26.9951266,17.2560638 26.9855541,17.3822489 C26.9949644,17.4200088 27,17.4594404 27,17.5 C27,17.577858 26.9814301,17.652668 26.9484241,17.7196325 C26.5990391,20.1360614 24.5169034,22 22.0005601,22 L4.99943992,22 C2.47646707,22 0.39785142,20.1387884 0.05090665,17.7170869 C0.01852303,17.6514307 0,17.5777899 0,17.5 C0,17.4596992 0.00497542,17.4202151 0.01435298,17.382213 L0.01435298,17.382213 Z M1,17 C1,16.6548633 1.04392109,16.3197573 1.12649336,16 L1.12649336,16 L25.8735341,16 C25.9560741,16.3196199 26,16.6547004 26,17 L1,17 L1,17 Z M1.12646589,18 C1.21808339,18.3547709 1.35727535,18.6904936 1.53677755,19 L1.53677755,19 L25.4633372,19 C25.6428094,18.6903822 25.7819289,18.3546307 25.8735066,18 L1.12646589,18 L1.12646589,18 Z M5.52778687,8 C5.25337543,8.3065967 5.01002833,8.6415792 4.80269309,9 L4.80269309,9 L15.1973069,9 C14.9899717,8.6415792 14.7466246,8.3065967 14.4722131,8 L5.52778687,8 L5.52778687,8 L5.52778687,8 Z M6.68220474,7 C7.632511,6.3681527 8.7732622,6 10,6 C11.2267378,6 12.367489,6.3681527 13.3177953,7 L6.68220474,7 L6.68220474,7 L6.68220474,7 Z M4.3501465,9.9754571 C4.23218227,10.304618 4.14216624,10.6470856 4.08295843,11 L4.08295843,11 L22.7439415,11 C22.6181033,10.643971 22.4487328,10.3085058 22.2422256,10 L4.5082041,10 C4.45297145,10 4.39985382,9.9913874 4.3501465,9.9754571 L4.3501465,9.9754571 L4.3501465,9.9754571 Z M15.6713327,9 C16.4441958,8.3746001 17.4283516,8 18.5,8 C19.5716484,8 20.5558042,8.3746001 21.3286673,9 L15.6713327,9 L15.6713327,9 L15.6713327,9 Z M4,12 C4,12.3407122 4.02839879,12.6747915 4.08295843,13 L4.08295838,13 L22.9725356,13 C22.9906833,12.8358331 23,12.6690046 23,12.5 C23,12.3309955 22.9906833,12.1641669 22.9725356,12 L4,12 L4,12 L4,12 Z M2.37541421,13.9837499 C2.04304943,14.2732379 1.75891475,14.6165803 1.53666277,15 L1.53666277,15 L25.4632224,15 C25.2407558,14.6164123 24.9563729,14.2730926 24.623902,13.9836863 C24.5837366,13.9943114 24.541623,14 24.4982224,14 L2.5017776,14 C2.45824191,14 2.41587894,13.9943542 2.37541421,13.9837499 L2.37541421,13.9837499 L2.37541421,13.9837499 Z M2.3574725,20 C3.06364763,20.6223634 3.99032661,21 5.00281647,21 L21.9971835,21 C23.0115087,21 23.9377152,20.6220385 24.6431279,20 L2.3574725,20 L2.3574725,20 L2.3574725,20 Z"/>
  </g>
</svg>
