<svg xmlns="http://www.w3.org/2000/svg" width="27" height="22" viewBox="0 0 27 22">
  <g fill="none" fill-rule="evenodd">
    <path fill="#1A1A1A" fill-rule="nonzero" d="M21.477,7.875 C22.0533844,7.36679038 22.4902242,6.71962042 22.746,5.995 C21.2035622,6.06391216 19.7031879,5.4813245 18.6114317,4.38956829 C17.5196755,3.29781209 16.9370878,1.79743779 17.006,0.255 C15.7530032,0.696315701 14.7588811,1.66849127 14.2897087,2.91132586 C13.8205362,4.15416045 13.9242166,5.54075856 14.573,6.7 C14.959,7.033 15.307,7.408 15.613,7.816 C16.4805639,7.28045147 17.4804537,6.99783628 18.5,7 C19.5559903,6.99819503 20.5899297,7.30209055 21.477,7.875 L21.477,7.875 Z"/>
    <path stroke="#979797" d="M3.54187753,12.7427488 C1.74010821,13.360599 0.502147286,15.0610716 0.500000307,16.9994462 C0.5,19.4840597 2.51977019,21.5 5.003,21.5 L21.997,21.5 C24.4824198,21.4993805 26.497517,19.4857935 26.4999998,17.0004995 C26.4979435,15.0763171 25.2786908,13.3840704 23.4940305,12.7551276 C23.5954838,10.7908964 22.5306152,8.930842 20.7501592,8.0338255 C19.0326888,7.16854196 16.9913319,7.37165188 15.4863798,8.5095109 C13.8965311,6.00129744 10.7729724,4.86689742 7.90983028,5.83858423 C4.99076979,6.82924849 3.1893708,9.7216244 3.54187753,12.7427488 Z"/>
  </g>
</svg>
