<svg xmlns="http://www.w3.org/2000/svg" width="27" height="27" viewBox="0 0 27 27">
  <g fill="none" fill-rule="evenodd">
    <path fill="#1A1A1A" fill-rule="nonzero" d="M21.4774187,7.62 C22.0538031,7.11179038 22.4906429,6.46462042 22.7464187,5.74 C21.2039809,5.80891216 19.7036066,5.2263245 18.6118504,4.13456829 C17.5200942,3.04281209 16.9375065,1.54243779 17.0064187,0 C15.7534219,0.441315701 14.7592998,1.41349127 14.2901274,2.65632586 C13.8209549,3.89916045 13.9246353,5.28575856 14.5734187,6.445 C14.9594187,6.778 15.3074187,7.153 15.6134187,7.561 C16.4809826,7.02545147 17.4808724,6.74283628 18.5004187,6.745 C19.556409,6.74319503 20.5903484,7.04709055 21.4774187,7.62 L21.4774187,7.62 Z"/>
    <path fill="#4990E2" fill-rule="nonzero" d="M7.5,22 C7.224,22 7,22.216 7,22.495 L7,24.505 C7,24.778 7.232,25 7.5,25 C7.776,25 8,24.784 8,24.505 L8,22.495 C7.99565411,22.2214935 7.77353634,22.0015969 7.5,22 L7.5,22 Z M10.5,24 C10.224,24 10,24.216 10,24.495 L10,26.505 C10,26.778 10.232,27 10.5,27 C10.776,27 11,26.784 11,26.505 L11,24.495 C10.9956541,24.2214935 10.7735363,24.0015969 10.5,24 L10.5,24 Z M13.5,22 C13.224,22 13,22.216 13,22.495 L13,24.505 C13,24.778 13.232,25 13.5,25 C13.776,25 14,24.784 14,24.505 L14,22.495 C13.9956541,22.2214935 13.7735363,22.0015969 13.5,22 L13.5,22 Z M16.5,24 C16.224,24 16,24.216 16,24.495 L16,26.505 C16,26.778 16.232,27 16.5,27 C16.776,27 17,26.784 17,26.505 L17,24.495 C16.9956541,24.2214935 16.7735363,24.0015969 16.5,24 L16.5,24 Z M19.5,22 C19.224,22 19,22.216 19,22.495 L19,24.505 C19,24.778 19.232,25 19.5,25 C19.776,25 20,24.784 20,24.505 L20,22.495 C19.9956541,22.2214935 19.7735363,22.0015969 19.5,22 L19.5,22 Z"/>
    <path stroke="#979797" d="M3.54187753,11.7427488 C1.74010821,12.360599 0.502147286,14.0610716 0.500000307,15.9994462 C0.5,18.4840597 2.51977019,20.5 5.003,20.5 L21.997,20.5 C24.4824198,20.4993805 26.497517,18.4857935 26.4999998,16.0004995 C26.4979435,14.0763171 25.2786908,12.3840704 23.4940305,11.7551276 C23.5954838,9.7908964 22.5306152,7.930842 20.7501592,7.0338255 C19.0326888,6.16854196 16.9913319,6.37165188 15.4863798,7.5095109 C13.8965311,5.00129744 10.7729724,3.86689742 7.90983028,4.83858423 C4.99076979,5.82924849 3.1893708,8.7216244 3.54187753,11.7427488 Z"/>
  </g>
</svg>
