<svg xmlns="http://www.w3.org/2000/svg" width="27" height="29" viewBox="0 0 27 29">
  <g fill="none" fill-rule="evenodd">
    <path fill="#1A1A1A" fill-rule="nonzero" d="M21.477,7.875 C22.0533844,7.36679038 22.4902242,6.71962042 22.746,5.995 C21.2035622,6.06391216 19.7031879,5.4813245 18.6114317,4.38956829 C17.5196755,3.29781209 16.9370878,1.79743779 17.006,0.255 C15.7530032,0.696315701 14.7588811,1.66849127 14.2897087,2.91132586 C13.8205362,4.15416045 13.9242166,5.54075856 14.573,6.7 C14.959,7.033 15.307,7.408 15.613,7.816 C16.4805639,7.28045147 17.4804537,6.99783628 18.5,7 C19.5559903,6.99819503 20.5899297,7.30209055 21.477,7.875 L21.477,7.875 Z"/>
    <path stroke="#979797" d="M3.54199442,12.7425402 C1.75035756,13.3562779 0.5,15.0536987 0.5,17 C0.5,19.4834672 2.51997805,21.5 5.00281647,21.5 L21.9971835,21.5 C24.482476,21.5 26.5,19.4823306 26.5,17 C26.5,15.0675535 25.2672268,13.3800091 23.4935859,12.7552533 C23.4978569,12.6704531 23.5,12.5853499 23.5,12.5 C23.5,9.7385761 21.2614239,7.5 18.5,7.5 C17.3929869,7.5 16.3421852,7.86183063 15.4851928,8.5106855 C14.3078751,6.66122936 12.2573761,5.5 10,5.5 C6.41014895,5.5 3.5,8.4101489 3.5,12 C3.5,12.2494916 3.51407949,12.4972838 3.54199442,12.7425402 Z"/>
    <path fill="#8FB3DE" fill-rule="nonzero" d="M8,24.634 L8,23.498 C7.99674094,23.2235453 7.77446557,23.002159 7.5,23 C7.224,23 7,23.215 7,23.498 L7,24.634 L6.016,24.066 C5.77675318,23.93178 5.47409652,24.0135551 5.335,24.25 C5.26720605,24.3641208 5.24819116,24.5007231 5.28224075,24.6290204 C5.31629034,24.7573178 5.40053919,24.8665142 5.516,24.932 L6.5,25.5 L5.516,26.068 C5.28005388,26.2081436 5.19959693,26.5113018 5.335,26.75 C5.473,26.99 5.771,27.076 6.016,26.934 L7,26.366 L7,27.502 C7,27.777 7.232,28 7.5,28 C7.776,28 8,27.785 8,27.502 L8,26.366 L8.984,26.934 C9.22324682,27.06822 9.52590348,26.9864449 9.665,26.75 C9.73279395,26.6358792 9.75180884,26.4992769 9.71775925,26.3709796 C9.68370966,26.2426822 9.59946081,26.1334858 9.484,26.068 L8.5,25.5 L9.484,24.932 C9.71994612,24.7918564 9.80040307,24.4886982 9.665,24.25 C9.60002272,24.1343062 9.49123403,24.0496168 9.36313573,24.0150058 C9.23503743,23.9803948 9.09840092,23.9987726 8.984,24.066 L8,24.634 L8,24.634 Z M20,24.634 L20,23.498 C19.9967409,23.2235453 19.7744656,23.002159 19.5,23 C19.224,23 19,23.215 19,23.498 L19,24.634 L18.016,24.066 C17.7767532,23.93178 17.4740965,24.0135551 17.335,24.25 C17.267206,24.3641208 17.2481912,24.5007231 17.2822408,24.6290204 C17.3162903,24.7573178 17.4005392,24.8665142 17.516,24.932 L18.5,25.5 L17.516,26.068 C17.2800539,26.2081436 17.1995969,26.5113018 17.335,26.75 C17.473,26.99 17.771,27.076 18.016,26.934 L19,26.366 L19,27.502 C19,27.777 19.232,28 19.5,28 C19.776,28 20,27.785 20,27.502 L20,26.366 L20.984,26.934 C21.2232468,27.06822 21.5259035,26.9864449 21.665,26.75 C21.732794,26.6358792 21.7518088,26.4992769 21.7177592,26.3709796 C21.6837097,26.2426822 21.5994608,26.1334858 21.484,26.068 L20.5,25.5 L21.484,24.932 C21.7199461,24.7918564 21.8004031,24.4886982 21.665,24.25 C21.6000227,24.1343062 21.491234,24.0496168 21.3631357,24.0150058 C21.2350374,23.9803948 21.0984009,23.9987726 20.984,24.066 L20,24.634 L20,24.634 Z M14,25.634 L14,24.498 C13.9967409,24.2235453 13.7744656,24.002159 13.5,24 C13.224,24 13,24.215 13,24.498 L13,25.634 L12.016,25.066 C11.7767532,24.93178 11.4740965,25.0135551 11.335,25.25 C11.267206,25.3641208 11.2481912,25.5007231 11.2822408,25.6290204 C11.3162903,25.7573178 11.4005392,25.8665142 11.516,25.932 L12.5,26.5 L11.516,27.068 C11.2800539,27.2081436 11.1995969,27.5113018 11.335,27.75 C11.473,27.99 11.771,28.076 12.016,27.934 L13,27.366 L13,28.502 C13,28.777 13.232,29 13.5,29 C13.776,29 14,28.785 14,28.502 L14,27.366 L14.984,27.934 C15.2232468,28.06822 15.5259035,27.9864449 15.665,27.75 C15.732794,27.6358792 15.7518088,27.4992769 15.7177592,27.3709796 C15.6837097,27.2426822 15.5994608,27.1334858 15.484,27.068 L14.5,26.5 L15.484,25.932 C15.7199461,25.7918564 15.8004031,25.4886982 15.665,25.25 C15.6000227,25.1343062 15.491234,25.0496168 15.3631357,25.0150058 C15.2350374,24.9803948 15.0984009,24.9987726 14.984,25.066 L14,25.634 Z"/>
  </g>
</svg>
