<svg xmlns="http://www.w3.org/2000/svg" width="29" height="25" viewBox="0 0 29 25">
  <g fill="none" fill-rule="evenodd" transform="translate(1)">
    <path fill="#FFF101" fill-rule="nonzero" d="M21,9.6 L21,9.5 C21.00091,7.4188204 19.574583,5.60852717 17.5509566,5.12247635 C15.5273301,4.63642554 13.4344082,5.60143736 12.49,7.456 C13.7341958,7.93075721 14.817687,8.74961855 15.614,9.817 C16.4811711,9.2812795 17.4806966,8.99832306 18.5,9 C19.4,9 20.25,9.216 20.999,9.6 L21,9.6 Z M16.5,0 C16.224,0 16,0.216 16,0.495 L16,2.505 C16,2.778 16.232,3 16.5,3 C16.776,3 17,2.784 17,2.505 L17,0.495 C16.9956541,0.221493522 16.7735363,0.00159693235 16.5,0 Z M23.233,2.789 C23.1405496,2.69430392 23.013969,2.64066268 22.8816281,2.64009873 C22.7492873,2.63953477 22.6222541,2.69209527 22.529,2.786 L21.109,4.206 C20.9182467,4.40237928 20.91958,4.71525356 21.112,4.91 C21.2043159,5.00482885 21.3308213,5.05865082 21.4631625,5.05940276 C21.5955036,5.06015469 21.7226125,5.00777371 21.816,4.914 L23.236,3.493 C23.4267533,3.29662072 23.42542,2.98374644 23.233,2.789 L23.233,2.789 Z M26.022,9.522 C26.022,9.246 25.806,9.022 25.527,9.022 L23.517,9.022 C23.2434935,9.02634589 23.0235969,9.24846366 23.022,9.522 C23.022,9.798 23.238,10.022 23.517,10.022 L25.527,10.022 C25.8005065,10.0176541 26.0204031,9.79553634 26.022,9.522 L26.022,9.522 Z M9.767,2.789 C9.67230392,2.88145036 9.61866268,3.00803103 9.61809873,3.14037187 C9.61753477,3.27271271 9.67009527,3.39974594 9.764,3.493 L11.184,4.913 C11.3803793,5.10375328 11.6932536,5.10242001 11.888,4.91 C11.9828288,4.81768406 12.0366508,4.69117865 12.0374028,4.55883752 C12.0381547,4.42649638 11.9857737,4.29938754 11.892,4.206 L10.471,2.786 C10.2746207,2.59524672 9.96174644,2.59657999 9.767,2.789 L9.767,2.789 Z"/>
    <path stroke="#979797" d="M3.01082983,14.412766 C1.20098415,15.1979298 0.00222410704,16.9914377 6.13704242e-07,18.9988924 C-3.40170459e-08,21.7593666 2.24279128,24 5.003,24 L21.997,24 C24.7584217,23.9993117 26.9972411,21.7622129 26.9999996,19.000999 C26.9978593,16.9973201 25.8055405,15.2058699 24.0001292,14.4174491 C23.9707836,12.3846332 22.8154556,10.5144761 20.975127,9.58729499 C19.2557389,8.72104531 17.2260254,8.82355742 15.6160789,9.81572498 C13.8233764,7.4011548 10.6491385,6.38091413 7.74914302,7.36510814 C4.743344,8.38520953 2.82080939,11.2892539 3.01082983,14.412766 Z"/>
  </g>
</svg>
