<svg xmlns="http://www.w3.org/2000/svg" width="27" height="32" viewBox="0 0 27 32">
  <g fill="none" fill-rule="evenodd">
    <g fill="#FFF101" fill-rule="nonzero" transform="translate(9)">
      <path stroke="#FFF101" d="M12,9.6 L12,9.5 C12.00091,7.4188204 10.574583,5.60852717 8.5509566,5.12247635 C6.5273301,4.63642554 4.4344082,5.60143736 3.49,7.456 C4.7341958,7.93075721 5.817687,8.74961855 6.614,9.817 C7.4811711,9.2812795 8.4806966,8.99832306 9.5,9 C10.4,9 11.25,9.216 11.999,9.6 L12,9.6 Z"/>
      <path d="M7.5,0 C7.224,0 7,0.216 7,0.495 L7,2.505 C7,2.778 7.232,3 7.5,3 C7.776,3 8,2.784 8,2.505 L8,0.495 C7.9956541,0.221493522 7.7735363,0.00159693235 7.5,0 Z M14.233,2.789 C14.1405496,2.69430392 14.013969,2.64066268 13.8816281,2.64009873 C13.7492873,2.63953477 13.6222541,2.69209527 13.529,2.786 L12.109,4.206 C11.9182467,4.40237928 11.91958,4.71525356 12.112,4.91 C12.2043159,5.00482885 12.3308213,5.05865082 12.4631625,5.05940276 C12.5955036,5.06015469 12.7226125,5.00777371 12.816,4.914 L14.236,3.493 C14.4267533,3.29662072 14.42542,2.98374644 14.233,2.789 L14.233,2.789 Z M17.022,9.522 C17.022,9.246 16.806,9.022 16.527,9.022 L14.517,9.022 C14.2434935,9.02634589 14.0235969,9.24846366 14.022,9.522 C14.022,9.798 14.238,10.022 14.517,10.022 L16.527,10.022 C16.8005065,10.0176541 17.0204031,9.79553634 17.022,9.522 L17.022,9.522 Z M0.767,2.789 C0.67230392,2.88145036 0.61866268,3.00803103 0.61809873,3.14037187 C0.61753477,3.27271271 0.67009527,3.39974594 0.764,3.493 L2.184,4.913 C2.3803793,5.10375328 2.6932536,5.10242001 2.888,4.91 C2.9828288,4.81768406 3.0366508,4.69117865 3.0374028,4.55883752 C3.0381547,4.42649638 2.9857737,4.29938754 2.892,4.206 L1.471,2.786 C1.2746207,2.59524672 0.96174644,2.59657999 0.767,2.789 L0.767,2.789 Z"/>
    </g>
    <path fill="#4990E2" d="M4,28.857 C4,27.414 6.51,25 6.51,25 C6.51,25 9,27.414 9,28.857 C9,29.886 8.187,31 6.51,31 C4.835,31 4,29.971 4,28.857 Z M5.01,28.8 C5.01,28.1 6.51,26.479 6.51,26.479 C6.51,26.479 8.013,28.1 8.013,28.8 C8.013,29.552 7.343,30 6.511,30 C5.678,30 5.01,29.675 5.01,28.8 Z M11,29.857 C11,28.414 13.51,26 13.51,26 C13.51,26 16,28.414 16,29.857 C16,30.886 15.187,32 13.51,32 C11.835,32 11,30.971 11,29.857 Z M12.01,29.8 C12.01,29.1 13.51,27.479 13.51,27.479 C13.51,27.479 15.013,29.1 15.013,29.8 C15.013,30.552 14.343,31 13.511,31 C12.678,31 12.01,30.675 12.01,29.8 Z M18,28.857 C18,27.414 20.51,25 20.51,25 C20.51,25 23,27.414 23,28.857 C23,29.886 22.187,31 20.51,31 C18.835,31 18,29.971 18,28.857 Z M19.01,28.8 C19.01,28.1 20.51,26.479 20.51,26.479 C20.51,26.479 22.013,28.1 22.013,28.8 C22.013,29.552 21.343,30 20.511,30 C19.678,30 19.01,29.675 19.01,28.8 Z"/>
    <path stroke="#979797" d="M3.54199442,14.7425402 C1.75035756,15.3562779 0.5,17.0536987 0.5,19 C0.5,21.4834672 2.51997805,23.5 5.00281647,23.5 L21.9971835,23.5 C24.482476,23.5 26.5,21.4823306 26.5,19 C26.5,17.0675535 25.2672268,15.3800091 23.4935859,14.7552533 C23.4978569,14.6704531 23.5,14.5853499 23.5,14.5 C23.5,11.7385761 21.2614239,9.5 18.5,9.5 C17.3929869,9.5 16.3421852,9.86183063 15.4851928,10.5106855 C14.3078751,8.66122936 12.2573761,7.5 10,7.5 C6.41014895,7.5 3.5,10.4101489 3.5,14 C3.5,14.2494916 3.51407949,14.4972838 3.54199442,14.7425402 Z"/>
  </g>
</svg>
