<svg xmlns="http://www.w3.org/2000/svg" width="27" height="30" viewBox="0 0 27 30">
  <g fill="none" fill-rule="evenodd">
    <g fill="#FFF101" fill-rule="nonzero" transform="translate(9)">
      <path stroke="#FFF101" d="M12,9.6 L12,9.5 C12.00091,7.4188204 10.574583,5.60852717 8.5509566,5.12247635 C6.5273301,4.63642554 4.4344082,5.60143736 3.49,7.456 C4.7341958,7.93075721 5.817687,8.74961855 6.614,9.817 C7.4811711,9.2812795 8.4806966,8.99832306 9.5,9 C10.4,9 11.25,9.216 11.999,9.6 L12,9.6 Z"/>
      <path d="M7.5,0 C7.224,0 7,0.216 7,0.495 L7,2.505 C7,2.778 7.232,3 7.5,3 C7.776,3 8,2.784 8,2.505 L8,0.495 C7.9956541,0.221493522 7.7735363,0.00159693235 7.5,0 Z M14.233,2.789 C14.1405496,2.69430392 14.013969,2.64066268 13.8816281,2.64009873 C13.7492873,2.63953477 13.6222541,2.69209527 13.529,2.786 L12.109,4.206 C11.9182467,4.40237928 11.91958,4.71525356 12.112,4.91 C12.2043159,5.00482885 12.3308213,5.05865082 12.4631625,5.05940276 C12.5955036,5.06015469 12.7226125,5.00777371 12.816,4.914 L14.236,3.493 C14.4267533,3.29662072 14.42542,2.98374644 14.233,2.789 L14.233,2.789 Z M17.022,9.522 C17.022,9.246 16.806,9.022 16.527,9.022 L14.517,9.022 C14.2434935,9.02634589 14.0235969,9.24846366 14.022,9.522 C14.022,9.798 14.238,10.022 14.517,10.022 L16.527,10.022 C16.8005065,10.0176541 17.0204031,9.79553634 17.022,9.522 L17.022,9.522 Z M0.767,2.789 C0.67230392,2.88145036 0.61866268,3.00803103 0.61809873,3.14037187 C0.61753477,3.27271271 0.67009527,3.39974594 0.764,3.493 L2.184,4.913 C2.3803793,5.10375328 2.6932536,5.10242001 2.888,4.91 C2.9828288,4.81768406 3.0366508,4.69117865 3.0374028,4.55883752 C3.0381547,4.42649638 2.9857737,4.29938754 2.892,4.206 L1.471,2.786 C1.2746207,2.59524672 0.96174644,2.59657999 0.767,2.789 L0.767,2.789 Z"/>
    </g>
    <path stroke="#979797" d="M23.4940305,14.7551276 C23.5954838,12.7908964 22.5306152,10.930842 20.7501592,10.0338255 C19.0326888,9.16854196 16.9913319,9.37165188 15.4863798,10.5095109 C13.8965311,8.00129744 10.7729724,6.86689742 7.90983028,7.83858423 C4.99084139,8.8292242 3.18945917,11.7214826 3.5418516,14.7425265 C1.73996756,15.3604297 0.502035,17.061052 0.500000275,18.9994752 C0.5,21.4840597 2.51977019,23.5 5.003,23.5 L8.375,23.5 L8.72150023,23.5 L8.84316459,23.1755617 L11.3465002,16.5 L16.2784998,16.5 L15.0318354,19.8244383 L14.7784998,20.5 L15.5,20.5 L17.7928932,20.5 L15.6464466,22.6464466 L14.7928932,23.5 L16,23.5 L21.997,23.5 C24.4824198,23.4993805 26.497517,21.4857935 26.4999998,19.0004995 C26.4979435,17.0763171 25.2786908,15.3840704 23.4940305,14.7551276 Z"/>
    <polygon stroke="#D0011B" points="14.794 20.5 16.067 17.179 16.327 16.5 15.6 16.5 11.7 16.5 11.356 16.5 11.233 16.821 8.933 22.821 8.673 23.5 9.4 23.5 11.267 23.5 10.03 26.93 9.27 29.038 10.854 27.454 16.954 21.354 17.807 20.5 16.6 20.5"/>
  </g>
</svg>
