<svg xmlns="http://www.w3.org/2000/svg" width="27" height="31" viewBox="0 0 27 31">
  <g fill="none" fill-rule="evenodd">
    <g fill="#FFF101" transform="translate(9)">
      <path stroke="#FFF101" d="M12,9.6 L12,9.5 C12.00091,7.4188204 10.574583,5.60852717 8.5509566,5.12247635 C6.5273301,4.63642554 4.4344082,5.60143736 3.49,7.456 C4.7341958,7.93075721 5.817687,8.74961855 6.614,9.817 C7.4811711,9.2812795 8.4806966,8.99832306 9.5,9 C10.4,9 11.25,9.216 11.999,9.6 L12,9.6 Z"/>
      <path fill-rule="nonzero" d="M7.5,0 C7.224,0 7,0.216 7,0.495 L7,2.505 C7,2.778 7.232,3 7.5,3 C7.776,3 8,2.784 8,2.505 L8,0.495 C7.9956541,0.221493522 7.7735363,0.00159693235 7.5,0 Z M14.233,2.789 C14.1405496,2.69430392 14.013969,2.64066268 13.8816281,2.64009873 C13.7492873,2.63953477 13.6222541,2.69209527 13.529,2.786 L12.109,4.206 C11.9182467,4.40237928 11.91958,4.71525356 12.112,4.91 C12.2043159,5.00482885 12.3308213,5.05865082 12.4631625,5.05940276 C12.5955036,5.06015469 12.7226125,5.00777371 12.816,4.914 L14.236,3.493 C14.4267533,3.29662072 14.42542,2.98374644 14.233,2.789 L14.233,2.789 Z M17.022,9.522 C17.022,9.246 16.806,9.022 16.527,9.022 L14.517,9.022 C14.2434935,9.02634589 14.0235969,9.24846366 14.022,9.522 C14.022,9.798 14.238,10.022 14.517,10.022 L16.527,10.022 C16.8005065,10.0176541 17.0204031,9.79553634 17.022,9.522 L17.022,9.522 Z M0.767,2.789 C0.67230392,2.88145036 0.61866268,3.00803103 0.61809873,3.14037187 C0.61753477,3.27271271 0.67009527,3.39974594 0.764,3.493 L2.184,4.913 C2.3803793,5.10375328 2.6932536,5.10242001 2.888,4.91 C2.9828288,4.81768406 3.0366508,4.69117865 3.0374028,4.55883752 C3.0381547,4.42649638 2.9857737,4.29938754 2.892,4.206 L1.471,2.786 C1.2746207,2.59524672 0.96174644,2.59657999 0.767,2.789 L0.767,2.789 Z"/>
    </g>
    <path stroke="#979797" d="M3.54199442,14.7425402 C1.75035756,15.3562779 0.5,17.0536987 0.5,19 C0.5,21.4834672 2.51997805,23.5 5.00281647,23.5 L21.9971835,23.5 C24.482476,23.5 26.5,21.4823306 26.5,19 C26.5,17.0675535 25.2672268,15.3800091 23.4935859,14.7552533 C23.4978569,14.6704531 23.5,14.5853499 23.5,14.5 C23.5,11.7385761 21.2614239,9.5 18.5,9.5 C17.3929869,9.5 16.3421852,9.86183063 15.4851928,10.5106855 C14.3078751,8.66122936 12.2573761,7.5 10,7.5 C6.41014895,7.5 3.5,10.4101489 3.5,14 C3.5,14.2494916 3.51407949,14.4972838 3.54199442,14.7425402 Z"/>
    <path fill="#8FB3DE" d="M8,26.634 L8,25.498 C7.99674094,25.2235453 7.77446557,25.002159 7.5,25 C7.224,25 7,25.215 7,25.498 L7,26.634 L6.016,26.066 C5.77675318,25.93178 5.47409652,26.0135551 5.335,26.25 C5.26720605,26.3641208 5.24819116,26.5007231 5.28224075,26.6290204 C5.31629034,26.7573178 5.40053919,26.8665142 5.516,26.932 L6.5,27.5 L5.516,28.068 C5.28005388,28.2081436 5.19959693,28.5113018 5.335,28.75 C5.473,28.99 5.771,29.076 6.016,28.934 L7,28.366 L7,29.502 C7,29.777 7.232,30 7.5,30 C7.776,30 8,29.785 8,29.502 L8,28.366 L8.984,28.934 C9.22324682,29.06822 9.52590348,28.9864449 9.665,28.75 C9.73279395,28.6358792 9.75180884,28.4992769 9.71775925,28.3709796 C9.68370966,28.2426822 9.59946081,28.1334858 9.484,28.068 L8.5,27.5 L9.484,26.932 C9.71994612,26.7918564 9.80040307,26.4886982 9.665,26.25 C9.60002272,26.1343062 9.49123403,26.0496168 9.36313573,26.0150058 C9.23503743,25.9803948 9.09840092,25.9987726 8.984,26.066 L8,26.634 L8,26.634 Z M20,26.634 L20,25.498 C19.9967409,25.2235453 19.7744656,25.002159 19.5,25 C19.224,25 19,25.215 19,25.498 L19,26.634 L18.016,26.066 C17.7767532,25.93178 17.4740965,26.0135551 17.335,26.25 C17.267206,26.3641208 17.2481912,26.5007231 17.2822408,26.6290204 C17.3162903,26.7573178 17.4005392,26.8665142 17.516,26.932 L18.5,27.5 L17.516,28.068 C17.2800539,28.2081436 17.1995969,28.5113018 17.335,28.75 C17.473,28.99 17.771,29.076 18.016,28.934 L19,28.366 L19,29.502 C19,29.777 19.232,30 19.5,30 C19.776,30 20,29.785 20,29.502 L20,28.366 L20.984,28.934 C21.2232468,29.06822 21.5259035,28.9864449 21.665,28.75 C21.732794,28.6358792 21.7518088,28.4992769 21.7177592,28.3709796 C21.6837097,28.2426822 21.5994608,28.1334858 21.484,28.068 L20.5,27.5 L21.484,26.932 C21.7199461,26.7918564 21.8004031,26.4886982 21.665,26.25 C21.6000227,26.1343062 21.491234,26.0496168 21.3631357,26.0150058 C21.2350374,25.9803948 21.0984009,25.9987726 20.984,26.066 L20,26.634 L20,26.634 Z M14,27.634 L14,26.498 C13.9967409,26.2235453 13.7744656,26.002159 13.5,26 C13.224,26 13,26.215 13,26.498 L13,27.634 L12.016,27.066 C11.7767532,26.93178 11.4740965,27.0135551 11.335,27.25 C11.267206,27.3641208 11.2481912,27.5007231 11.2822408,27.6290204 C11.3162903,27.7573178 11.4005392,27.8665142 11.516,27.932 L12.5,28.5 L11.516,29.068 C11.2800539,29.2081436 11.1995969,29.5113018 11.335,29.75 C11.473,29.99 11.771,30.076 12.016,29.934 L13,29.366 L13,30.502 C13,30.777 13.232,31 13.5,31 C13.776,31 14,30.785 14,30.502 L14,29.366 L14.984,29.934 C15.2232468,30.06822 15.5259035,29.9864449 15.665,29.75 C15.732794,29.6358792 15.7518088,29.4992769 15.7177592,29.3709796 C15.6837097,29.2426822 15.5994608,29.1334858 15.484,29.068 L14.5,28.5 L15.484,27.932 C15.7199461,27.7918564 15.8004031,27.4886982 15.665,27.25 C15.6000227,27.1343062 15.491234,27.0496168 15.3631357,27.0150058 C15.2350374,26.9803948 15.0984009,26.9987726 14.984,27.066 L14,27.634 Z"/>
  </g>
</svg>
