<svg xmlns="http://www.w3.org/2000/svg" width="27" height="24" viewBox="0 0 27 24">
  <g fill="none" fill-rule="evenodd">
    <g fill="#FFF101" transform="translate(9)">
      <path stroke="#FFF101" d="M12,9.6 L12,9.5 C12.00091,7.4188204 10.574583,5.60852717 8.5509566,5.12247635 C6.5273301,4.63642554 4.4344082,5.60143736 3.49,7.456 C4.7341958,7.93075721 5.817687,8.74961855 6.614,9.817 C7.4811711,9.2812795 8.4806966,8.99832306 9.5,9 C10.4,9 11.25,9.216 11.999,9.6 L12,9.6 Z"/>
      <path fill-rule="nonzero" d="M7.5,0 C7.224,0 7,0.216 7,0.495 L7,2.505 C7,2.778 7.232,3 7.5,3 C7.776,3 8,2.784 8,2.505 L8,0.495 C7.9956541,0.221493522 7.7735363,0.00159693235 7.5,0 Z M14.233,2.789 C14.1405496,2.69430392 14.013969,2.64066268 13.8816281,2.64009873 C13.7492873,2.63953477 13.6222541,2.69209527 13.529,2.786 L12.109,4.206 C11.9182467,4.40237928 11.91958,4.71525356 12.112,4.91 C12.2043159,5.00482885 12.3308213,5.05865082 12.4631625,5.05940276 C12.5955036,5.06015469 12.7226125,5.00777371 12.816,4.914 L14.236,3.493 C14.4267533,3.29662072 14.42542,2.98374644 14.233,2.789 L14.233,2.789 Z M17.022,9.522 C17.022,9.246 16.806,9.022 16.527,9.022 L14.517,9.022 C14.2434935,9.02634589 14.0235969,9.24846366 14.022,9.522 C14.022,9.798 14.238,10.022 14.517,10.022 L16.527,10.022 C16.8005065,10.0176541 17.0204031,9.79553634 17.022,9.522 L17.022,9.522 Z M0.767,2.789 C0.67230392,2.88145036 0.61866268,3.00803103 0.61809873,3.14037187 C0.61753477,3.27271271 0.67009527,3.39974594 0.764,3.493 L2.184,4.913 C2.3803793,5.10375328 2.6932536,5.10242001 2.888,4.91 C2.9828288,4.81768406 3.0366508,4.69117865 3.0374028,4.55883752 C3.0381547,4.42649638 2.9857737,4.29938754 2.892,4.206 L1.471,2.786 C1.2746207,2.59524672 0.96174644,2.59657999 0.767,2.789 L0.767,2.789 Z"/>
    </g>
    <path fill="#929292" fill-rule="nonzero" d="M0.01435298,19.382213 C0.00484149,19.256058 0,19.128596 0,19 C0,16.9491311 1.23965876,15.1816085 3.01189661,14.4115388 L3.01189661,14.4115388 C3.00400207,14.275367 3,14.1381509 3,14 C3,13.8673058 3.00369217,13.735474 3.01097937,13.6046017 L3.01097937,13.6046017 C3.00379095,13.5708677 3,13.5358751 3,13.5 C3,13.4393285 3.01133839,13.380508 3.03204832,13.3258084 C3.37126467,9.7761208 6.36143327,7 10,7 C12.2979469,7 14.3372745,8.10728055 15.6135384,9.8173973 C16.4525719,9.299097 17.441357,9 18.5,9 C21.5090248,9 23.9536744,11.4163763 23.9993494,14.4145295 L23.9993494,14.4145295 C25.7676457,15.1852931 27,16.9483386 27,19 C27,19.1285889 26.9951266,19.2560638 26.9855541,19.3822489 C26.9949644,19.4200088 27,19.4594404 27,19.5 C27,19.577858 26.9814301,19.652668 26.9484241,19.7196325 C26.5990391,22.1360614 24.5169034,24 22.0005601,24 L4.99943992,24 C2.47646707,24 0.39785142,22.1387884 0.05090665,19.7170869 C0.01852303,19.6514307 0,19.5777899 0,19.5 C0,19.4596992 0.00497542,19.4202151 0.01435298,19.382213 L0.01435298,19.382213 Z M1,19 C1,18.6548633 1.04392109,18.3197573 1.12649336,18 L1.12649336,18 L25.8735341,18 C25.9560741,18.3196199 26,18.6547004 26,19 L1,19 L1,19 Z M1.12646589,20 C1.21808339,20.3547709 1.35727535,20.6904936 1.53677755,21 L1.53677755,21 L25.4633372,21 C25.6428094,20.6903822 25.7819289,20.3546307 25.8735066,20 L1.12646589,20 L1.12646589,20 Z M5.52778687,10 C5.25337543,10.3065967 5.01002833,10.6415792 4.80269309,11 L4.80269309,11 L15.1973069,11 C14.9899717,10.6415792 14.7466246,10.3065967 14.4722131,10 L5.52778687,10 L5.52778687,10 L5.52778687,10 Z M6.68220474,9 C7.632511,8.3681527 8.7732622,8 10,8 C11.2267378,8 12.367489,8.3681527 13.3177953,9 L6.68220474,9 L6.68220474,9 L6.68220474,9 Z M4.3501465,11.9754571 C4.23218227,12.304618 4.14216624,12.6470856 4.08295843,13 L4.08295843,13 L22.7439415,13 C22.6181033,12.643971 22.4487328,12.3085058 22.2422256,12 L4.5082041,12 C4.45297145,12 4.39985382,11.9913874 4.3501465,11.9754571 L4.3501465,11.9754571 L4.3501465,11.9754571 Z M15.6713327,11 C16.4441958,10.3746001 17.4283516,10 18.5,10 C19.5716484,10 20.5558042,10.3746001 21.3286673,11 L15.6713327,11 L15.6713327,11 L15.6713327,11 Z M4,14 C4,14.3407122 4.02839879,14.6747915 4.08295843,15 L4.08295838,15 L22.9725356,15 C22.9906833,14.8358331 23,14.6690046 23,14.5 C23,14.3309955 22.9906833,14.1641669 22.9725356,14 L4,14 L4,14 L4,14 Z M2.37541421,15.9837499 C2.04304943,16.2732379 1.75891475,16.6165803 1.53666277,17 L1.53666277,17 L25.4632224,17 C25.2407558,16.6164123 24.9563729,16.2730926 24.623902,15.9836863 C24.5837366,15.9943114 24.541623,16 24.4982224,16 L2.5017776,16 C2.45824191,16 2.41587894,15.9943542 2.37541421,15.9837499 L2.37541421,15.9837499 L2.37541421,15.9837499 Z M2.3574725,22 C3.06364763,22.6223634 3.99032661,23 5.00281647,23 L21.9971835,23 C23.0115087,23 23.9377152,22.6220385 24.6431279,22 L2.3574725,22 L2.3574725,22 L2.3574725,22 Z"/>
  </g>
</svg>
