<svg xmlns="http://www.w3.org/2000/svg" width="10" height="30" viewBox="0 0 10 30">
  <path fill="#4990E2" fill-rule="evenodd" d="M7,21.535 C8.56787206,22.4402114 9.33227518,24.2856437 8.86370331,26.0343778 C8.39513143,27.7831119 6.81042271,28.9991016 5,28.9991016 C3.18957729,28.9991016 1.60486857,27.7831119 1.13629669,26.0343778 C0.667724817,24.2856437 1.43212794,22.4402114 3,21.535 L3,3.004 C3,1.89 3.895,1 5,1 C6.112,1 7,1.897 7,3.004 L7,21.535 L7,21.535 Z M8,21 C9.72172163,22.2912912 10.4239867,24.5394281 9.74341649,26.5811388 C9.06284626,28.6228495 7.15215204,30 5,30 C2.84784796,30 0.937153742,28.6228495 0.25658351,26.5811388 C-0.423986722,24.5394281 0.278278368,22.2912912 2,21 L2,2.99 C2.00496111,1.33682348 3.34681613,-0.000558689093 5,2.22044605e-16 C6.653,2.22044605e-16 8,1.339 8,2.99 L8,21 Z"/>
</svg>
