<svg xmlns="http://www.w3.org/2000/svg" width="26" height="22" viewBox="0 0 26 22">
  <g fill="none" fill-rule="evenodd" transform="translate(1 1)">
    <path fill="#F6A623" d="M12,6 C11.448,6 11,6.453 11,6.997 L11,13.003 C11,13.553 11.444,14 12,14 C12.552,14 13,13.547 13,13.003 L13,6.997 C13.0002682,6.73197662 12.8949013,6.4777746 12.7072201,6.2906564 C12.5195388,6.10353821 12.2650214,5.99893551 12,6 L12,6 Z M12,18 C12.5522847,18 13,17.5522847 13,17 C13,16.4477153 12.5522847,16 12,16 C11.4477153,16 11,16.4477153 11,17 C11,17.5522847 11.4477153,18 12,18 Z"/>
    <path stroke="#CFC301" d="M11.1051497,0.023 L11.0744117,0.023 L10.927819,0.259900893 L-0.0761809729,18.0429009 C-0.864541081,19.3140127 -0.202752443,20.5 1.29,20.5 L22.675,20.5 C24.1573615,20.5 24.825725,19.3076394 24.0408903,18.0424317 L13.0361703,0.259883604 C12.5476957,-0.528432813 11.6709711,-0.607826547 11.1051497,0.023 Z"/>
  </g>
</svg>
