<svg xmlns="http://www.w3.org/2000/svg" width="25" height="20" viewBox="0 0 25 20">
  <g fill="none" fill-rule="evenodd">
    <path fill="#929292" fill-rule="nonzero" d="M14.2142857,4.7619048 L13,8 L11.7857143,4.7619048 L9.5,4 L11.7857143,3.2380952 L13,0 L14.2142857,3.2380952 L16.5,4 L14.2142857,4.7619048 L14.2142857,4.7619048 L14.2142857,4.7619048 Z M18.2142857,11.2380952 L17,8 L15.7857143,11.2380952 L13.5,12 L15.7857143,12.7619048 L17,16 L18.2142857,12.7619048 L20.5,12 L18.2142857,11.2380952 L18.2142857,11.2380952 L18.2142857,11.2380952 Z M22.8673469,5.4285714 L24.5,6 L22.8673469,6.5714286 L22,9 L21.1326531,6.5714286 L19.5,6 L21.1326531,5.4285714 L22,3 L22.8673469,5.4285714 L22.8673469,5.4285714 Z"/>
    <path stroke="#000" d="M4.58386693,9.07825533 C4.52828922,9.37813928 4.5,9.68454252 4.5,9.9946037 C4.5,12.7560276 6.73857613,14.9946037 9.5,14.9946037 C9.81006109,14.9946037 10.1164643,14.9663145 10.4163483,14.9107368 C10.397746,15.0112609 10.3760768,15.1110447 10.3513763,15.20999 L10.3513763,15.20999 C9.80024125,17.4177264 7.80785311,18.9946037 5.5,18.9946037 C2.73857613,18.9946037 0.5,16.7560276 0.5,13.9946037 C0.5,11.6867505 2.07687728,9.69436246 4.28461376,9.14322733 C4.38355903,9.11852683 4.48334283,9.09685759 4.58386693,9.07825533 Z"/>
  </g>
</svg>
