<svg xmlns="http://www.w3.org/2000/svg" width="27" height="28" viewBox="0 0 27 28">
  <g fill="none" fill-rule="evenodd">
    <path fill="#1A1A1A" fill-rule="nonzero" d="M21.477,7.875 C22.0533844,7.36679038 22.4902242,6.71962042 22.746,5.995 C21.2035622,6.06391216 19.7031879,5.4813245 18.6114317,4.38956829 C17.5196755,3.29781209 16.9370878,1.79743779 17.006,0.255 C15.7530032,0.696315701 14.7588811,1.66849127 14.2897087,2.91132586 C13.8205362,4.15416045 13.9242166,5.54075856 14.573,6.7 C14.959,7.033 15.307,7.408 15.613,7.816 C16.4805639,7.28045147 17.4804537,6.99783628 18.5,7 C19.5559903,6.99819503 20.5899297,7.30209055 21.477,7.875 L21.477,7.875 Z"/>
    <path stroke="#979797" d="M23.4940305,12.7551276 C23.5954838,10.7908964 22.5306152,8.930842 20.7501592,8.0338255 C19.0326888,7.16854196 16.9913319,7.37165188 15.4863798,8.5095109 C13.8965311,6.00129744 10.7729724,4.86689742 7.90983028,5.83858423 C4.99084139,6.8292242 3.18945917,9.7214826 3.5418516,12.7425265 C1.73996756,13.3604297 0.502035,15.061052 0.500000275,16.9994752 C0.5,19.4840597 2.51977019,21.5 5.003,21.5 L8.375,21.5 L8.72150023,21.5 L8.84316459,21.1755617 L11.3465002,14.5 L16.2784998,14.5 L15.0318354,17.8244383 L14.7784998,18.5 L15.5,18.5 L17.7928932,18.5 L15.6464466,20.6464466 L14.7928932,21.5 L16,21.5 L21.997,21.5 C24.4824198,21.4993805 26.497517,19.4857935 26.4999998,17.0004995 C26.4979435,15.0763171 25.2786908,13.3840704 23.4940305,12.7551276 Z"/>
    <polygon stroke="#D0011B" points="14.794 18.5 16.067 15.179 16.327 14.5 15.6 14.5 11.7 14.5 11.356 14.5 11.233 14.821 8.933 20.821 8.673 21.5 9.4 21.5 11.267 21.5 10.03 24.93 9.27 27.038 10.854 25.454 16.954 19.354 17.807 18.5 16.6 18.5"/>
  </g>
</svg>
