<svg xmlns="http://www.w3.org/2000/svg" width="27" height="30" viewBox="0 0 27 30">
  <g fill="none" fill-rule="evenodd">
    <path fill="#1A1A1A" fill-rule="nonzero" d="M21.477,7.875 C22.0533844,7.36679038 22.4902242,6.71962042 22.746,5.995 C21.2035622,6.06391216 19.7031879,5.4813245 18.6114317,4.38956829 C17.5196755,3.29781209 16.9370878,1.79743779 17.006,0.255 C15.7530032,0.696315701 14.7588811,1.66849127 14.2897087,2.91132586 C13.8205362,4.15416045 13.9242166,5.54075856 14.573,6.7 C14.959,7.033 15.307,7.408 15.613,7.816 C16.4805639,7.28045147 17.4804537,6.99783628 18.5,7 C19.5559903,6.99819503 20.5899297,7.30209055 21.477,7.875 L21.477,7.875 Z"/>
    <path fill="#4990E2" d="M4,26.857 C4,25.414 6.51,23 6.51,23 C6.51,23 9,25.414 9,26.857 C9,27.886 8.187,29 6.51,29 C4.835,29 4,27.971 4,26.857 Z M5.01,26.8 C5.01,26.1 6.51,24.479 6.51,24.479 C6.51,24.479 8.013,26.1 8.013,26.8 C8.013,27.552 7.343,28 6.511,28 C5.678,28 5.01,27.675 5.01,26.8 Z M11,27.857 C11,26.414 13.51,24 13.51,24 C13.51,24 16,26.414 16,27.857 C16,28.886 15.187,30 13.51,30 C11.835,30 11,28.971 11,27.857 Z M12.01,27.8 C12.01,27.1 13.51,25.479 13.51,25.479 C13.51,25.479 15.013,27.1 15.013,27.8 C15.013,28.552 14.343,29 13.511,29 C12.678,29 12.01,28.675 12.01,27.8 Z M18,26.857 C18,25.414 20.51,23 20.51,23 C20.51,23 23,25.414 23,26.857 C23,27.886 22.187,29 20.51,29 C18.835,29 18,27.971 18,26.857 Z M19.01,26.8 C19.01,26.1 20.51,24.479 20.51,24.479 C20.51,24.479 22.013,26.1 22.013,26.8 C22.013,27.552 21.343,28 20.511,28 C19.678,28 19.01,27.675 19.01,26.8 Z"/>
    <path stroke="#979797" d="M3.54199442,12.7425402 C1.75035756,13.3562779 0.5,15.0536987 0.5,17 C0.5,19.4834672 2.51997805,21.5 5.00281647,21.5 L21.9971835,21.5 C24.482476,21.5 26.5,19.4823306 26.5,17 C26.5,15.0675535 25.2672268,13.3800091 23.4935859,12.7552533 C23.4978569,12.6704531 23.5,12.5853499 23.5,12.5 C23.5,9.7385761 21.2614239,7.5 18.5,7.5 C17.3929869,7.5 16.3421852,7.86183063 15.4851928,8.5106855 C14.3078751,6.66122936 12.2573761,5.5 10,5.5 C6.41014895,5.5 3.5,8.4101489 3.5,12 C3.5,12.2494916 3.51407949,12.4972838 3.54199442,12.7425402 Z"/>
  </g>
</svg>
