<svg xmlns="http://www.w3.org/2000/svg" width="27" height="29" viewBox="0 0 27 29">
  <g fill="none" fill-rule="evenodd">
    <path fill="#1A1A1A" fill-rule="nonzero" d="M21.477,7.875 C22.0533844,7.36679038 22.4902242,6.71962042 22.746,5.995 C21.2035622,6.06391216 19.7031879,5.4813245 18.6114317,4.38956829 C17.5196755,3.29781209 16.9370878,1.79743779 17.006,0.255 C15.7530032,0.696315701 14.7588811,1.66849127 14.2897087,2.91132586 C13.8205362,4.15416045 13.9242166,5.54075856 14.573,6.7 C14.959,7.033 15.307,7.408 15.613,7.816 C16.4805639,7.28045147 17.4804537,6.99783628 18.5,7 C19.5559903,6.99819503 20.5899297,7.30209055 21.477,7.875 L21.477,7.875 Z"/>
    <path stroke="#979797" d="M3.54199442,12.7425402 C1.75035756,13.3562779 0.5,15.0536987 0.5,17 C0.5,19.4834672 2.51997805,21.5 5.00281647,21.5 L21.9971835,21.5 C24.482476,21.5 26.5,19.4823306 26.5,17 C26.5,15.0675535 25.2672268,13.3800091 23.4935859,12.7552533 C23.4978569,12.6704531 23.5,12.5853499 23.5,12.5 C23.5,9.7385761 21.2614239,7.5 18.5,7.5 C17.3929869,7.5 16.3421852,7.86183063 15.4851928,8.5106855 C14.3078751,6.66122936 12.2573761,5.5 10,5.5 C6.41014895,5.5 3.5,8.4101489 3.5,12 C3.5,12.2494916 3.51407949,12.4972838 3.54199442,12.7425402 Z"/>
    <path fill="#4990E2" fill-rule="nonzero" d="M7,24 C6.44771525,24 6,24.4438648 6,25 C6,25.5522847 6.44386482,26 7,26 C7.5522847,26 8,25.5561352 8,25 C8,24.4477153 7.5561352,24 7,24 L7,24 Z M10,27 C9.4477153,27 9,27.4438648 9,28 C9,28.5522847 9.4438648,29 10,29 C10.5522847,29 11,28.5561352 11,28 C11,27.4477153 10.5561352,27 10,27 L10,27 Z M14,24 C13.4477153,24 13,24.4438648 13,25 C13,25.5522847 13.4438648,26 14,26 C14.5522847,26 15,25.5561352 15,25 C15,24.4477153 14.5561352,24 14,24 L14,24 Z M17,27 C16.4477153,27 16,27.4438648 16,28 C16,28.5522847 16.4438648,29 17,29 C17.5522847,29 18,28.5561352 18,28 C18,27.4477153 17.5561352,27 17,27 L17,27 Z M20,24 C19.4477153,24 19,24.4438648 19,25 C19,25.5522847 19.4438648,26 20,26 C20.5522847,26 21,25.5561352 21,25 C21,24.4477153 20.5561352,24 20,24 L20,24 Z"/>
  </g>
</svg>
