<svg xmlns="http://www.w3.org/2000/svg" width="27" height="29" viewBox="0 0 27 29">
  <g fill="none" fill-rule="evenodd">
    <path fill="#1A1A1A" fill-rule="nonzero" d="M21.4774187,7.62 C22.0538031,7.11179038 22.4906429,6.46462042 22.7464187,5.74 C21.2039809,5.80891216 19.7036066,5.2263245 18.6118504,4.13456829 C17.5200942,3.04281209 16.9375065,1.54243779 17.0064187,0 C15.7534219,0.441315701 14.7592998,1.41349127 14.2901274,2.65632586 C13.8209549,3.89916045 13.9246353,5.28575856 14.5734187,6.445 C14.9594187,6.778 15.3074187,7.153 15.6134187,7.561 C16.4809826,7.02545147 17.4808724,6.74283628 18.5004187,6.745 C19.556409,6.74319503 20.5903484,7.04709055 21.4774187,7.62 L21.4774187,7.62 Z"/>
    <path fill="#4990E2" d="M4,25.857 C4,24.414 6.51,22 6.51,22 C6.51,22 9,24.414 9,25.857 C9,26.886 8.187,28 6.51,28 C4.835,28 4,26.971 4,25.857 Z M5.01,25.8 C5.01,25.1 6.51,23.479 6.51,23.479 C6.51,23.479 8.013,25.1 8.013,25.8 C8.013,26.552 7.343,27 6.511,27 C5.678,27 5.01,26.675 5.01,25.8 Z M11,26.857 C11,25.414 13.51,23 13.51,23 C13.51,23 16,25.414 16,26.857 C16,27.886 15.187,29 13.51,29 C11.835,29 11,27.971 11,26.857 Z M12.01,26.8 C12.01,26.1 13.51,24.479 13.51,24.479 C13.51,24.479 15.013,26.1 15.013,26.8 C15.013,27.552 14.343,28 13.511,28 C12.678,28 12.01,27.675 12.01,26.8 Z M18,25.857 C18,24.414 20.51,22 20.51,22 C20.51,22 23,24.414 23,25.857 C23,26.886 22.187,28 20.51,28 C18.835,28 18,26.971 18,25.857 Z M19.01,25.8 C19.01,25.1 20.51,23.479 20.51,23.479 C20.51,23.479 22.013,25.1 22.013,25.8 C22.013,26.552 21.343,27 20.511,27 C19.678,27 19.01,26.675 19.01,25.8 Z"/>
    <path stroke="#979797" d="M3.54199442,11.7425402 C1.75035756,12.3562779 0.5,14.0536987 0.5,16 C0.5,18.4834672 2.51997805,20.5 5.00281647,20.5 L21.9971835,20.5 C24.482476,20.5 26.5,18.4823306 26.5,16 C26.5,14.0675535 25.2672268,12.3800091 23.4935859,11.7552533 C23.4978569,11.6704531 23.5,11.5853499 23.5,11.5 C23.5,8.7385761 21.2614239,6.5 18.5,6.5 C17.3929869,6.5 16.3421852,6.86183063 15.4851928,7.5106855 C14.3078751,5.66122936 12.2573761,4.5 10,4.5 C6.41014895,4.5 3.5,7.4101489 3.5,11 C3.5,11.2494916 3.51407949,11.4972838 3.54199442,11.7425402 Z"/>
  </g>
</svg>
