<svg xmlns="http://www.w3.org/2000/svg" width="27" height="36" viewBox="0 0 27 36">
  <defs>
    <linearGradient id="windy-a" x1="0%" x2="106.503%" y1="50%" y2="50%">
      <stop offset="0%" stop-color="#FFF"/>
      <stop offset="100%" stop-color="#4990E2"/>
    </linearGradient>
  </defs>
  <g fill="none" fill-rule="evenodd">
    <path fill="#1A1A1A" fill-rule="nonzero" d="M21.477,7.875 C22.0533844,7.36679038 22.4902242,6.71962042 22.746,5.995 C21.2035622,6.06391216 19.7031879,5.4813245 18.6114317,4.38956829 C17.5196755,3.29781209 16.9370878,1.79743779 17.006,0.255 C15.7530032,0.696315701 14.7588811,1.66849127 14.2897087,2.91132586 C13.8205362,4.15416045 13.9242166,5.54075856 14.573,6.7 C14.959,7.033 15.307,7.408 15.613,7.816 C16.4805639,7.28045147 17.4804537,6.99783628 18.5,7 C19.5559903,6.99819503 20.5899297,7.30209055 21.477,7.875 L21.477,7.875 Z"/>
    <path fill="url(#windy-a)" fill-rule="nonzero" d="M27,27 C27,24.790861 25.209139,23 23,23 C20.790861,23 19,24.790861 19,27 L20,27 C20,25.343 21.347,24 23,24 C24.657,24 26,25.347 26,27 C26,28.657 24.657,30 22.992,30 L0,30 L0,31 L23.002,31 C25.2099007,30.9977935 26.9988977,29.2079015 27,27 L27,27 Z M18,26 C18,24.343 16.653,23 15,23 C13.343,23 12,24.342 12,25.991 L12,26 L13,26 C13,24.895 13.888,24 15,24 C16.105,24 17,24.888 17,26 C17,27.105 16.103,28 14.994,28 L3,28 L3,29 L15,29 C16.657,29 18,27.653 18,26 Z M22,34 C22,35.105 21.112,36 20,36 C18.895,36 18,35.105 18,34.006 L18,34 L19,34 C19,34.552 19.444,35 20,35 C20.552,35 21,34.556 21,34 C21,33.448 20.551,33 19.993,33 L6,33 L6,32 L20.006,32 C21.107,32 22,32.888 22,34 Z"/>
    <path stroke="#979797" d="M3.54199442,12.7425402 C1.75035756,13.3562779 0.5,15.0536987 0.5,17 C0.5,19.4834672 2.51997805,21.5 5.00281647,21.5 L21.9971835,21.5 C24.482476,21.5 26.5,19.4823306 26.5,17 C26.5,15.0675535 25.2672268,13.3800091 23.4935859,12.7552533 C23.4978569,12.6704531 23.5,12.5853499 23.5,12.5 C23.5,9.7385761 21.2614239,7.5 18.5,7.5 C17.3929869,7.5 16.3421852,7.86183063 15.4851928,8.5106855 C14.3078751,6.66122936 12.2573761,5.5 10,5.5 C6.41014895,5.5 3.5,8.4101489 3.5,12 C3.5,12.2494916 3.51407949,12.4972838 3.54199442,12.7425402 Z"/>
  </g>
</svg>
