<svg xmlns="http://www.w3.org/2000/svg" width="27" height="30" viewBox="0 0 27 30">
  <g fill="none" fill-rule="evenodd">
    <path fill="#FFF101" fill-rule="nonzero" d="M21,9.6 L21,9.5 C21.00091,7.4188204 19.574583,5.60852717 17.5509566,5.12247635 C15.5273301,4.63642554 13.4344082,5.60143736 12.49,7.456 C13.7341958,7.93075721 14.817687,8.74961855 15.614,9.817 C16.4811711,9.2812795 17.4806966,8.99832306 18.5,9 C19.4,9 20.25,9.216 20.999,9.6 L21,9.6 Z M16.5,0 C16.224,0 16,0.216 16,0.495 L16,2.505 C16,2.778 16.232,3 16.5,3 C16.776,3 17,2.784 17,2.505 L17,0.495 C16.9956541,0.221493522 16.7735363,0.00159693235 16.5,0 Z M23.233,2.789 C23.1405496,2.69430392 23.013969,2.64066268 22.8816281,2.64009873 C22.7492873,2.63953477 22.6222541,2.69209527 22.529,2.786 L21.109,4.206 C20.9182467,4.40237928 20.91958,4.71525356 21.112,4.91 C21.2043159,5.00482885 21.3308213,5.05865082 21.4631625,5.05940276 C21.5955036,5.06015469 21.7226125,5.00777371 21.816,4.914 L23.236,3.493 C23.4267533,3.29662072 23.42542,2.98374644 23.233,2.789 L23.233,2.789 Z M26.022,9.522 C26.022,9.246 25.806,9.022 25.527,9.022 L23.517,9.022 C23.2434935,9.02634589 23.0235969,9.24846366 23.022,9.522 C23.022,9.798 23.238,10.022 23.517,10.022 L25.527,10.022 C25.8005065,10.0176541 26.0204031,9.79553634 26.022,9.522 L26.022,9.522 Z M9.767,2.789 C9.67230392,2.88145036 9.61866268,3.00803103 9.61809873,3.14037187 C9.61753477,3.27271271 9.67009527,3.39974594 9.764,3.493 L11.184,4.913 C11.3803793,5.10375328 11.6932536,5.10242001 11.888,4.91 C11.9828288,4.81768406 12.0366508,4.69117865 12.0374028,4.55883752 C12.0381547,4.42649638 11.9857737,4.29938754 11.892,4.206 L10.471,2.786 C10.2746207,2.59524672 9.96174644,2.59657999 9.767,2.789 L9.767,2.789 Z"/>
    <path fill="#4990E2" fill-rule="nonzero" d="M0.5,0 C0.224,0 0,0.216 0,0.495 L0,2.505 C0,2.778 0.232,3 0.5,3 C0.776,3 1,2.784 1,2.505 L1,0.495 C0.995654109,0.221493522 0.773536341,0.00159693235 0.5,3.55271368e-15 L0.5,0 Z M3.5,2 C3.224,2 3,2.216 3,2.495 L3,4.505 C3,4.778 3.232,5 3.5,5 C3.776,5 4,4.784 4,4.505 L4,2.495 C3.99565411,2.22149352 3.77353634,2.00159693 3.5,2 L3.5,2 Z M6.5,0 C6.224,0 6,0.216 6,0.495 L6,2.505 C6,2.778 6.232,3 6.5,3 C6.776,3 7,2.784 7,2.505 L7,0.495 C6.99565411,0.221493522 6.77353634,0.00159693235 6.5,3.55271368e-15 L6.5,0 Z M9.5,2 C9.224,2 9,2.216 9,2.495 L9,4.505 C9,4.778 9.232,5 9.5,5 C9.776,5 10,4.784 10,4.505 L10,2.495 C9.99565411,2.22149352 9.77353634,2.00159693 9.5,2 L9.5,2 Z M12.5,0 C12.224,0 12,0.216 12,0.495 L12,2.505 C12,2.778 12.232,3 12.5,3 C12.776,3 13,2.784 13,2.505 L13,0.495 C12.9956541,0.221493522 12.7735363,0.00159693235 12.5,3.55271368e-15 L12.5,0 Z" transform="translate(7 25)"/>
    <path stroke="#979797" d="M3.54187753,14.7427488 C1.74010821,15.360599 0.502147286,17.0610716 0.500000307,18.9994462 C0.5,21.4840597 2.51977019,23.5 5.003,23.5 L21.997,23.5 C24.4824198,23.4993805 26.497517,21.4857935 26.4999998,19.0004995 C26.4979435,17.0763171 25.2786908,15.3840704 23.4940305,14.7551276 C23.5954838,12.7908964 22.5306152,10.930842 20.7501592,10.0338255 C19.0326888,9.16854196 16.9913319,9.37165188 15.4863798,10.5095109 C13.8965311,8.00129744 10.7729724,6.86689742 7.90983028,7.83858423 C4.99076979,8.82924849 3.1893708,11.7216244 3.54187753,14.7427488 Z"/>
  </g>
</svg>
